<svg xmlns="http://www.w3.org/2000/svg" aria-hidden="true" focusable="false" data-prefix="fas" data-icon="globe" role="img" width="496" height="512"><rect id="backgroundrect" width="100%" height="100%" x="0" y="0" fill="none" stroke="none"/><g class="currentLayer" style=""><title>Layer 1</title><path fill="#6767e7" d="M336.5,159.19354838132858 C322,69.89354838132859 287.8,7.193548381328583 248,7.193548381328583 s-74,62.7 -88.5,152 h177 zM152,255.19354838132858 c0,22.2 1.2,43.5 3.3,64 h185.3 c2.1,-20.5 3.3,-41.8 3.3,-64 s-1.2,-43.5 -3.3,-64 H155.3 c-2.1,20.5 -3.3,41.8 -3.3,64 zm324.7,-96 c-28.6,-67.9 -86.5,-120.4 -158,-141.6 c24.4,33.8 41.2,84.7 50,141.6 h108 zM177.2,17.59354838132858 C105.8,38.793548381328584 47.8,91.29354838132858 19.3,159.19354838132858 h108 c8.7,-56.9 25.5,-107.8 49.9,-141.6 zM487.4,191.19354838132858 H372.7 c2.1,21 3.3,42.5 3.3,64 s-1.2,43 -3.3,64 h114.6 c5.5,-20.5 8.6,-41.8 8.6,-64 s-3.1,-43.5 -8.5,-64 zM120,255.19354838132858 c0,-21.5 1.2,-43 3.3,-64 H8.6 C3.2,211.69354838132858 0,232.9935483813286 0,255.19354838132858 s3.2,43.5 8.6,64 h114.6 c-2,-21 -3.2,-42.5 -3.2,-64 zm39.5,96 c14.5,89.3 48.7,152 88.5,152 s74,-62.7 88.5,-152 h-177 zm159.3,141.6 c71.4,-21.2 129.4,-73.7 158,-141.6 h-108 c-8.8,56.9 -25.6,107.8 -50,141.6 zM19.3,351.1935483813286 c28.6,67.9 86.5,120.4 158,141.6 c-24.4,-33.8 -41.2,-84.7 -50,-141.6 h-108 z" id="svg_1" class="selected" opacity="0.65" fill-opacity="1"/></g></svg>